<svg xmlns="http://www.w3.org/2000/svg" xmlns:xlink="http://www.w3.org/1999/xlink" width="500" zoomAndPan="magnify" viewBox="0 0 375 374.999991" height="500" preserveAspectRatio="xMidYMid meet" version="1.0"><defs><clipPath id="dd9f6c1c3b"><path d="M 37.5 13.769531 L 138.75 13.769531 L 138.75 115.019531 L 37.5 115.019531 Z M 37.5 13.769531 " clip-rule="nonzero"/></clipPath><clipPath id="80eb468aca"><path d="M 44.863281 41 L 329.863281 41 L 329.863281 336 L 44.863281 336 Z M 44.863281 41 " clip-rule="nonzero"/></clipPath><clipPath id="d8e096ebfa"><path d="M 54.515625 127.539062 L 320.535156 127.539062 L 320.535156 326.660156 L 54.515625 326.660156 Z M 54.515625 127.539062 " clip-rule="nonzero"/></clipPath><clipPath id="f141e556c8"><path d="M 71.765625 127.539062 L 303.234375 127.539062 C 307.808594 127.539062 312.195312 129.355469 315.429688 132.589844 C 318.664062 135.824219 320.484375 140.210938 320.484375 144.785156 L 320.484375 309.410156 C 320.484375 313.984375 318.664062 318.371094 315.429688 321.609375 C 312.195312 324.84375 307.808594 326.660156 303.234375 326.660156 L 71.765625 326.660156 C 67.191406 326.660156 62.804688 324.84375 59.570312 321.609375 C 56.335938 318.371094 54.515625 313.984375 54.515625 309.410156 L 54.515625 144.785156 C 54.515625 140.210938 56.335938 135.824219 59.570312 132.589844 C 62.804688 129.355469 67.191406 127.539062 71.765625 127.539062 Z M 71.765625 127.539062 " clip-rule="nonzero"/></clipPath><clipPath id="904cc6fcee"><path d="M 68 54 L 209 54 L 209 205 L 68 205 Z M 68 54 " clip-rule="nonzero"/></clipPath><clipPath id="7c45803f98"><path d="M 198.152344 52.996094 L 209.886719 203.578125 L 73.59375 214.199219 L 61.859375 63.621094 Z M 198.152344 52.996094 " clip-rule="nonzero"/></clipPath><clipPath id="ad3325a755"><path d="M 77.414062 152.207031 L 185.027344 203.050781 C 190.359375 205.570312 196.625 205.058594 201.480469 201.710938 C 206.335938 198.367188 209.039062 192.6875 208.582031 186.8125 L 199.441406 69.507812 C 198.980469 63.628906 195.429688 58.441406 190.117188 55.886719 C 184.800781 53.332031 178.53125 53.800781 173.65625 57.113281 L 75.21875 124.015625 C 70.386719 127.300781 67.683594 132.921875 68.136719 138.75 C 68.589844 144.574219 72.132812 149.710938 77.414062 152.207031 Z M 77.414062 152.207031 " clip-rule="nonzero"/></clipPath><clipPath id="f041c0fd64"><path d="M 167 51 L 311 51 L 311 202 L 167 202 Z M 167 51 " clip-rule="nonzero"/></clipPath><clipPath id="5ec34d68c5"><path d="M 166.070312 199.660156 L 184.386719 49.742188 L 320.082031 66.320312 L 301.769531 216.238281 Z M 166.070312 199.660156 " clip-rule="nonzero"/></clipPath><clipPath id="c7b8ad6e35"><path d="M 304.0625 126.324219 L 208.648438 55.179688 C 203.921875 51.65625 197.679688 50.914062 192.257812 53.234375 C 186.835938 55.550781 183.0625 60.582031 182.347656 66.433594 L 168.078125 183.222656 C 167.363281 189.074219 169.816406 194.867188 174.519531 198.421875 C 179.222656 201.976562 185.464844 202.761719 190.898438 200.476562 L 300.632812 154.394531 C 306.023438 152.132812 309.785156 147.15625 310.492188 141.355469 C 311.203125 135.554688 308.746094 129.816406 304.0625 126.324219 Z M 304.0625 126.324219 " clip-rule="nonzero"/></clipPath><clipPath id="d08f24d64e"><path d="M 88 205 L 287 205 L 287 301.664062 L 88 301.664062 Z M 88 205 " clip-rule="nonzero"/></clipPath></defs><g clip-path="url(#dd9f6c1c3b)"><path fill="#ffd700" d="M 67.664062 38.828125 L 57.429688 28.59375 C 56.019531 27.183594 53.746094 27.183594 52.332031 28.59375 C 50.921875 30.003906 50.921875 32.28125 52.332031 33.691406 L 62.566406 43.925781 C 63.257812 44.648438 64.195312 45.011719 65.132812 45.011719 C 66.035156 45.011719 66.976562 44.648438 67.664062 43.925781 C 69.074219 42.519531 69.074219 40.238281 67.664062 38.828125 Z M 55.585938 60.78125 L 41.121094 60.78125 C 39.128906 60.78125 37.503906 62.40625 37.503906 64.398438 C 37.503906 66.390625 39.128906 68.015625 41.121094 68.015625 L 55.585938 68.015625 C 57.578125 68.015625 59.207031 66.390625 59.207031 64.398438 C 59.207031 62.40625 57.570312 60.78125 55.585938 60.78125 Z M 67.664062 84.867188 C 66.253906 83.453125 63.976562 83.453125 62.566406 84.867188 L 52.332031 95.097656 C 50.921875 96.511719 50.921875 98.785156 52.332031 100.195312 C 53.054688 100.882812 53.960938 101.242188 54.898438 101.242188 C 55.804688 101.242188 56.742188 100.878906 57.429688 100.195312 L 67.664062 89.960938 C 69.074219 88.558594 69.074219 86.277344 67.664062 84.867188 Z M 88.128906 93.332031 C 86.140625 93.332031 84.511719 94.957031 84.511719 96.949219 L 84.511719 111.414062 C 84.511719 113.40625 86.140625 115.03125 88.128906 115.03125 C 90.121094 115.03125 91.75 113.40625 91.75 111.414062 L 91.75 96.949219 C 91.75 94.957031 90.121094 93.332031 88.128906 93.332031 Z M 123.933594 95.097656 L 113.699219 84.867188 C 112.289062 83.453125 110.015625 83.453125 108.605469 84.867188 C 107.195312 86.277344 107.195312 88.550781 108.605469 89.960938 L 118.839844 100.195312 C 119.527344 100.882812 120.464844 101.242188 121.371094 101.242188 C 122.308594 101.242188 123.210938 100.878906 123.933594 100.195312 C 125.34375 98.792969 125.34375 96.511719 123.933594 95.097656 Z M 135.140625 60.78125 L 120.675781 60.78125 C 118.683594 60.78125 117.054688 62.40625 117.054688 64.398438 C 117.054688 66.390625 118.683594 68.015625 120.675781 68.015625 L 135.140625 68.015625 C 137.132812 68.015625 138.757812 66.390625 138.757812 64.398438 C 138.757812 62.40625 137.132812 60.78125 135.140625 60.78125 Z M 123.933594 28.59375 C 122.523438 27.183594 120.25 27.183594 118.839844 28.59375 L 108.605469 38.828125 C 107.195312 40.238281 107.195312 42.515625 108.605469 43.925781 C 109.292969 44.648438 110.230469 45.011719 111.136719 45.011719 C 112.074219 45.011719 113.019531 44.648438 113.699219 43.925781 L 123.933594 33.691406 C 125.34375 32.289062 125.34375 30.003906 123.933594 28.59375 Z M 88.128906 13.769531 C 86.140625 13.769531 84.511719 15.398438 84.511719 17.390625 L 84.511719 31.855469 C 84.511719 33.847656 86.140625 35.472656 88.128906 35.472656 C 90.121094 35.472656 91.75 33.847656 91.75 31.855469 L 91.75 17.390625 C 91.75 15.398438 90.121094 13.769531 88.128906 13.769531 Z M 113.445312 64.398438 C 113.445312 78.390625 102.125 89.710938 88.128906 89.710938 C 74.136719 89.710938 62.816406 78.390625 62.816406 64.398438 C 62.816406 50.40625 74.136719 39.085938 88.128906 39.085938 C 102.125 39.085938 113.445312 50.40625 113.445312 64.398438 Z M 113.445312 64.398438 " fill-opacity="1" fill-rule="nonzero"/></g><g clip-path="url(#80eb468aca)"><path fill="#1a365d" d="M 330.132812 148.769531 C 330.132812 136.21875 323.859375 124.488281 313.417969 117.507812 C 288.609375 100.96875 235.414062 65.546875 208.320312 47.480469 C 195.710938 39.09375 179.289062 39.09375 166.679688 47.480469 C 139.582031 65.546875 86.386719 100.96875 61.578125 117.507812 C 51.140625 124.488281 44.863281 136.21875 44.863281 148.769531 C 44.863281 181.4375 44.863281 255.921875 44.863281 297.855469 C 44.863281 307.824219 48.792969 317.382812 55.832031 324.421875 C 62.867188 331.460938 72.429688 335.390625 82.398438 335.390625 C 134.363281 335.390625 240.574219 335.390625 292.597656 335.390625 C 302.566406 335.390625 312.070312 331.460938 319.164062 324.421875 C 326.203125 317.382812 330.132812 307.824219 330.132812 297.855469 C 330.132812 255.921875 330.132812 181.4375 330.132812 148.769531 Z M 315.117188 148.769531 L 315.117188 297.855469 C 315.117188 303.835938 312.773438 309.527344 308.550781 313.808594 C 304.269531 318.03125 298.578125 320.375 292.597656 320.375 L 82.398438 320.375 C 76.417969 320.375 70.726562 318.03125 66.445312 313.808594 C 62.222656 309.527344 59.878906 303.835938 59.878906 297.855469 C 59.878906 255.921875 59.878906 181.4375 59.878906 148.769531 C 59.878906 141.261719 63.632812 134.222656 69.90625 130 L 175.007812 59.972656 C 182.570312 54.929688 192.425781 54.929688 199.992188 59.972656 C 227.085938 78.039062 280.28125 113.460938 305.089844 130 C 311.367188 134.222656 315.117188 141.261719 315.117188 148.769531 " fill-opacity="1" fill-rule="evenodd"/></g><g clip-path="url(#d8e096ebfa)"><g clip-path="url(#f141e556c8)"><path fill="#1a365d" d="M 54.515625 127.539062 L 320.535156 127.539062 L 320.535156 326.660156 L 54.515625 326.660156 Z M 54.515625 127.539062 " fill-opacity="1" fill-rule="nonzero"/></g></g><g clip-path="url(#904cc6fcee)"><g clip-path="url(#7c45803f98)"><g clip-path="url(#ad3325a755)"><path fill="#1a365d" d="M 197.226562 41.09375 L 210.816406 215.480469 L 58.453125 227.355469 L 44.863281 52.96875 Z M 197.226562 41.09375 " fill-opacity="1" fill-rule="nonzero"/></g></g></g><g clip-path="url(#f041c0fd64)"><g clip-path="url(#5ec34d68c5)"><g clip-path="url(#c7b8ad6e35)"><path fill="#1a365d" d="M 164.621094 211.511719 L 185.832031 37.890625 L 337.53125 56.421875 L 316.320312 230.046875 Z M 164.621094 211.511719 " fill-opacity="1" fill-rule="nonzero"/></g></g></g><g clip-path="url(#d08f24d64e)"><path fill="#ffd700" d="M 187.417969 301.453125 C 184.496094 301.449219 181.578125 301.324219 178.664062 301.066406 C 175.75 300.8125 172.855469 300.429688 169.976562 299.921875 C 167.09375 299.417969 164.242188 298.785156 161.417969 298.03125 C 158.59375 297.273438 155.808594 296.398438 153.058594 295.402344 C 150.308594 294.402344 147.609375 293.289062 144.957031 292.054688 C 142.308594 290.824219 139.714844 289.480469 137.179688 288.019531 C 134.644531 286.5625 132.179688 284.996094 129.78125 283.324219 C 127.382812 281.652344 125.0625 279.878906 122.816406 278.003906 C 120.574219 276.132812 118.414062 274.164062 116.339844 272.101562 C 114.269531 270.039062 112.289062 267.890625 110.402344 265.65625 C 108.515625 263.421875 106.730469 261.109375 105.046875 258.71875 C 103.359375 256.332031 101.785156 253.871094 100.3125 251.34375 C 98.839844 248.820312 97.480469 246.234375 96.234375 243.585938 C 94.988281 240.941406 93.859375 238.25 92.847656 235.503906 C 91.835938 232.761719 90.945312 229.980469 90.175781 227.160156 C 89.40625 224.339844 88.761719 221.488281 88.238281 218.613281 C 88.105469 217.90625 88.046875 217.191406 88.054688 216.46875 C 88.0625 215.75 88.144531 215.039062 88.292969 214.332031 C 88.441406 213.628906 88.660156 212.945312 88.945312 212.285156 C 89.230469 211.621094 89.574219 210.996094 89.984375 210.402344 C 90.390625 209.808594 90.851562 209.257812 91.367188 208.757812 C 91.882812 208.253906 92.445312 207.808594 93.046875 207.414062 C 93.652344 207.023438 94.289062 206.691406 94.957031 206.425781 C 95.625 206.160156 96.316406 205.960938 97.023438 205.828125 C 97.730469 205.695312 98.445312 205.636719 99.164062 205.644531 C 99.886719 205.65625 100.597656 205.734375 101.300781 205.882812 C 102.007812 206.035156 102.691406 206.25 103.351562 206.535156 C 104.011719 206.820312 104.640625 207.164062 105.234375 207.574219 C 105.828125 207.980469 106.375 208.441406 106.878906 208.957031 C 107.382812 209.472656 107.828125 210.035156 108.222656 210.636719 C 108.613281 211.242188 108.945312 211.878906 109.210938 212.546875 C 109.476562 213.214844 109.675781 213.90625 109.808594 214.613281 C 110.238281 216.859375 110.765625 219.078125 111.386719 221.277344 C 112.003906 223.476562 112.71875 225.644531 113.527344 227.78125 C 114.332031 229.921875 115.230469 232.019531 116.214844 234.082031 C 117.203125 236.140625 118.277344 238.15625 119.4375 240.125 C 120.59375 242.09375 121.835938 244.011719 123.160156 245.875 C 124.484375 247.734375 125.886719 249.539062 127.363281 251.28125 C 128.839844 253.023438 130.390625 254.699219 132.011719 256.308594 C 133.632812 257.917969 135.324219 259.457031 137.074219 260.921875 C 138.828125 262.386719 140.640625 263.773438 142.515625 265.082031 C 144.386719 266.390625 146.3125 267.621094 148.289062 268.765625 C 150.269531 269.910156 152.289062 270.964844 154.359375 271.9375 C 156.425781 272.910156 158.535156 273.789062 160.675781 274.582031 C 162.820312 275.371094 164.996094 276.070312 167.199219 276.671875 C 169.402344 277.277344 171.628906 277.785156 173.875 278.199219 C 176.121094 278.613281 178.382812 278.929688 180.65625 279.148438 C 182.929688 279.371094 185.210938 279.492188 187.496094 279.515625 C 187.8125 279.515625 188.125 279.515625 188.4375 279.515625 C 190.707031 279.476562 192.964844 279.34375 195.21875 279.109375 C 197.476562 278.878906 199.714844 278.546875 201.941406 278.125 C 204.167969 277.699219 206.375 277.179688 208.554688 276.566406 C 210.738281 275.953125 212.890625 275.246094 215.011719 274.449219 C 217.132812 273.648438 219.214844 272.761719 221.261719 271.785156 C 223.308594 270.808594 225.308594 269.746094 227.261719 268.597656 C 229.214844 267.449219 231.117188 266.21875 232.964844 264.90625 C 234.816406 263.59375 236.605469 262.207031 238.335938 260.742188 C 240.0625 259.277344 241.726562 257.742188 243.324219 256.132812 C 244.925781 254.523438 246.449219 252.851562 247.90625 251.113281 C 249.359375 249.375 250.738281 247.578125 252.039062 245.71875 C 253.335938 243.863281 254.554688 241.953125 255.691406 239.992188 C 256.828125 238.03125 257.878906 236.027344 258.84375 233.972656 C 259.808594 231.921875 260.683594 229.835938 261.46875 227.707031 C 262.253906 225.582031 262.949219 223.425781 263.546875 221.238281 C 264.148438 219.054688 264.65625 216.847656 265.066406 214.617188 C 265.195312 213.910156 265.394531 213.21875 265.664062 212.550781 C 265.929688 211.882812 266.257812 211.242188 266.648438 210.640625 C 267.042969 210.035156 267.488281 209.476562 267.992188 208.957031 C 268.496094 208.441406 269.042969 207.980469 269.636719 207.570312 C 270.230469 207.164062 270.859375 206.816406 271.519531 206.53125 C 272.179688 206.246094 272.863281 206.03125 273.570312 205.878906 C 274.273438 205.730469 274.988281 205.652344 275.707031 205.640625 C 276.425781 205.632812 277.140625 205.691406 277.851562 205.824219 C 278.558594 205.953125 279.246094 206.152344 279.917969 206.421875 C 280.585938 206.6875 281.222656 207.019531 281.828125 207.410156 C 282.429688 207.800781 282.992188 208.25 283.507812 208.753906 C 284.023438 209.253906 284.484375 209.804688 284.894531 210.398438 C 285.300781 210.992188 285.648438 211.621094 285.929688 212.28125 C 286.214844 212.945312 286.433594 213.628906 286.582031 214.332031 C 286.730469 215.035156 286.8125 215.75 286.820312 216.46875 C 286.828125 217.191406 286.769531 217.90625 286.636719 218.613281 C 286.109375 221.460938 285.460938 224.277344 284.691406 227.070312 C 283.921875 229.863281 283.035156 232.613281 282.027344 235.328125 C 281.023438 238.046875 279.902344 240.710938 278.667969 243.332031 C 277.433594 245.949219 276.089844 248.511719 274.636719 251.015625 C 273.183594 253.519531 271.625 255.957031 269.960938 258.328125 C 268.296875 260.699219 266.535156 262.992188 264.675781 265.210938 C 262.816406 267.429688 260.867188 269.566406 258.824219 271.617188 C 256.78125 273.667969 254.652344 275.628906 252.441406 277.5 C 250.230469 279.371094 247.945312 281.140625 245.582031 282.8125 C 243.21875 284.488281 240.789062 286.058594 238.292969 287.523438 C 235.792969 288.988281 233.238281 290.34375 230.625 291.585938 C 228.011719 292.832031 225.347656 293.964844 222.636719 294.984375 C 219.925781 296 217.179688 296.898438 214.390625 297.683594 C 211.601562 298.464844 208.785156 299.125 205.941406 299.664062 C 203.097656 300.203125 200.234375 300.621094 197.355469 300.917969 C 194.472656 301.210938 191.585938 301.382812 188.691406 301.429688 Z M 187.417969 301.453125 " fill-opacity="1" fill-rule="nonzero"/></g></svg>